<?xml version="1.0"?>
<svg xmlns="http://www.w3.org/2000/svg" xmlns:xlink="http://www.w3.org/1999/xlink" xmlns:svgjs="http://svgjs.com/svgjs" version="1.1" width="512" height="512" x="0" y="0" viewBox="0 0 512.27 512.27" style="enable-background:new 0 0 512 512" xml:space="preserve" class=""><g><g xmlns="http://www.w3.org/2000/svg"><path d="m224.748 193.875h62.124v46.593h-62.124z" fill="#e5af17" data-original="#f9d264" style="" class=""/><path d="m224.75 193.88h20v46.59h-20z" fill="#efc356" data-original="#efc356" style="" class=""/><path d="m348.997 162.813-62.124 31.062h-62.125l-62.124-31.062v-155.311h186.373z" fill="#9bd8f9" data-original="#9bd8f9" style="" class=""/><path d="m244.75 193.88h-20l-62.13-31.07v-155.31h20v155.31z" fill="#73c3f9" data-original="#73c3f9" style="" class=""/><circle cx="255.81" cy="364.757" fill="#fff292" r="140.018" data-original="#fff292" style="" class=""/><path d="m165.793 364.757c0-68.675 49.698-125.961 115.018-137.782-8.114-1.468-16.469-2.236-25-2.236-77.206 0-140.018 62.812-140.018 140.018s62.812 140.018 140.018 140.018c8.531 0 16.886-.767 25-2.236-65.321-11.821-115.018-69.107-115.018-137.782z" fill="#f9e77d" data-original="#f9e77d" style="" class=""/><circle cx="255.81" cy="364.757" fill="#e5af17" r="108.718" data-original="#f9d264" style="" class=""/><path d="m203.181 459.91c-23.191-24.995-37.389-58.447-37.389-95.153 0-36.705 14.197-70.157 37.389-95.152-33.447 18.539-56.089 54.202-56.089 95.152.001 40.951 22.642 76.613 56.089 95.153z" fill="#efc356" data-original="#efc356" style="" class=""/><g><path d="m262.597 306.852 13.334 27.017c1.102 2.234 3.233 3.782 5.699 4.14l29.815 4.332c6.208.902 8.686 8.531 4.194 12.909l-21.574 21.03c-1.784 1.739-2.598 4.244-2.177 6.699l5.093 29.694c1.06 6.183-5.429 10.898-10.981 7.978l-26.667-14.02c-2.205-1.159-4.839-1.159-7.044 0l-26.667 14.02c-5.552 2.919-12.042-1.796-10.981-7.978l5.093-29.694c.421-2.455-.393-4.96-2.177-6.699l-21.574-21.03c-4.492-4.379-2.013-12.007 4.195-12.909l29.815-4.332c2.465-.358 4.596-1.906 5.699-4.14l13.334-27.017c2.774-5.626 10.795-5.626 13.571 0z" fill="#fff292" data-original="#fff292" style="" class=""/></g><path d="m224.748 7.502h62.125v186.374h-62.125z" fill="#f25a74" data-original="#f25a74" style="" class=""/><path d="m224.75 7.5h20v186.38h-20z" fill="#e83d5a" data-original="#e83d5a" style="" class=""/><g><path d="m312.522 334.919-29.866-4.37-13.333-27.017c-6.013-13.532-20.513-13.532-27.025 0l-13.385 27.055-29.815 4.332c-13.732 1.372-18.535 15.885-8.351 25.701l21.595 21.092-5.094 29.694c-2.208 12.862 12.032 21.053 21.863 15.885l26.73-14.02 26.668 14.02c12.801 6.209 24.301-1.291 21.863-15.885l-5.072-29.756 21.573-21.029c7.937-7.621 4.937-24.33-8.351-25.702zm-2.119 14.961-21.574 21.03c-3.552 3.462-5.172 8.447-4.333 13.337l5.114 29.714c-.017.027-.08.07-.12.053l-26.667-14.019c-4.393-2.311-9.634-2.31-14.024-.001l-26.68 14.046c-.032-.008-.092-.051-.088-.099l5.095-29.694c.838-4.89-.782-9.875-4.334-13.337l-21.604-21.034c-.003-.033.02-.103.066-.113l29.815-4.332c4.909-.714 9.15-3.795 11.346-8.243l13.327-27.045c.031-.013.104-.013.095-.031 0 .001.014.017.034.06l13.333 27.016c2.195 4.449 6.437 7.53 11.347 8.244l29.84 4.318c.022.023.044.093.012.13z" fill="#000000" data-original="#000000" style="" class=""/><path d="m294.37 222.363v-23.848l57.985-28.997c2.541-1.271 4.146-3.867 4.146-6.708v-61.44c0-4.143-3.357-7.5-7.5-7.5s-7.5 3.357-7.5 7.5v56.805l-47.128 23.568v-166.743h47.128v53.68c0 4.143 3.357 7.5 7.5 7.5s7.5-3.357 7.5-7.5v-61.18c0-4.143-3.357-7.5-7.5-7.5h-186.381c-4.143 0-7.5 3.357-7.5 7.5v155.31c0 2.841 1.604 5.438 4.146 6.708l57.985 28.997v23.857c-57.748 15.651-102.552 68.573-108.276 128.171-.396 4.123 2.626 7.786 6.749 8.183 4.107.389 7.786-2.625 8.183-6.749 6.457-67.225 64.816-119.736 131.904-119.736 73.071 0 132.52 59.448 132.52 132.52 0 73.066-59.448 132.51-132.52 132.51-65.871 0-122.31-49.156-131.28-114.342-.564-4.104-4.353-6.975-8.452-6.407-4.104.564-6.973 4.349-6.407 8.452 4.81 34.954 22.154 67.123 48.838 90.58 26.934 23.677 61.489 36.717 97.302 36.717 81.343 0 147.52-66.173 147.52-147.51-.002-68.007-46.261-125.401-108.962-142.398zm-62.122-35.987v-171.374h47.125v171.374zm-62.128-171.376h47.128v166.742l-47.128-23.568zm62.131 204.131v-17.751h47.119v17.75c-15.707-2.52-31.413-2.52-47.119.001z" fill="#000000" data-original="#000000" style="" class=""/><path d="m238.021 249.896c-55.969 8.598-98.431 58.267-98.431 114.863 0 64.084 52.136 116.221 116.22 116.221s116.22-52.137 116.22-116.221c0-56.839-42.825-106.644-99.083-114.959-4.095-.612-7.91 2.225-8.516 6.322-.606 4.098 2.225 7.91 6.322 8.516 49.186 7.271 86.276 50.313 86.276 100.121 0 55.813-45.407 101.221-101.22 101.221s-101.22-45.407-101.22-101.221c0-49.523 36.847-92.53 85.708-100.037 4.095-.629 6.903-4.458 6.274-8.552-.628-4.094-4.459-6.903-8.55-6.274z" fill="#000000" data-original="#000000" style="" class=""/></g></g></g></svg>
